HIERARCHY
ROOT hip
{
	OFFSET 0.000000 0.000000 0.000000
	CHANNELS 6 Xposition Yposition Zposition Xrotation Zrotation Yrotation 
	JOINT abdomen
	{
		OFFSET 0.000000 3.422050 0.000000
		CHANNELS 3 Xrotation Zrotation Yrotation 
		JOINT chest
		{
			OFFSET 0.000000 8.486693 -0.684411
			CHANNELS 3 Xrotation Zrotation Yrotation 
			JOINT neck
			{
				OFFSET 0.000000 10.266162 -0.273764
				CHANNELS 3 Xrotation Zrotation Yrotation 
				JOINT head
				{
					OFFSET 0.000000 3.148285 0.000000
					CHANNELS 3 Xrotation Zrotation Yrotation 
					End Site
					{
						OFFSET 0.000000 3.148289 0.000000
					}
				}
			}
			JOINT lCollar
			{
				OFFSET 3.422053 6.707223 -0.821293
				CHANNELS 3 Yrotation Zrotation Xrotation 
				JOINT lShldr
				{
					OFFSET 3.285171 0.000000 0.000000
					CHANNELS 3 Zrotation Yrotation Xrotation 
					JOINT lForeArm
					{
						OFFSET 10.129278 0.000000 0.000000
						CHANNELS 3 Yrotation Zrotation Xrotation 
						JOINT lHand
						{
							OFFSET 8.486692 0.000000 0.000000
							CHANNELS 3 Zrotation Yrotation Xrotation 
							End Site
							{
								OFFSET 4.106464 0.000000 0.000000
							}
						}
					}
				}
			}
			JOINT rCollar
			{
				OFFSET -3.558935 6.707223 -0.821293
				CHANNELS 3 Yrotation Zrotation Xrotation 
				JOINT rShldr
				{
					OFFSET -3.148289 0.000000 0.000000
					CHANNELS 3 Zrotation Yrotation Xrotation 
					JOINT rForeArm
					{
						OFFSET -10.266159 0.000000 0.000000
						CHANNELS 3 Yrotation Zrotation Xrotation 
						JOINT rHand
						{
							OFFSET -8.349810 0.000000 0.000000
							CHANNELS 3 Zrotation Yrotation Xrotation 
							End Site
							{
								OFFSET -4.106464 0.000000 0.000000
							}
						}
					}
				}
			}
		}
	}
	JOINT lThigh
	{
		OFFSET 5.338403 -1.642589 1.368821
		CHANNELS 3 Xrotation Zrotation Yrotation 
		JOINT lShin
		{
			OFFSET -2.053232 -20.121670 0.000000
			CHANNELS 3 Xrotation Zrotation Yrotation 
			JOINT lFoot
			{
				OFFSET 0.000000 -19.300380 -1.231939
				CHANNELS 3 Xrotation Yrotation Zrotation 
				End Site
				{
					OFFSET 0.000000 -2.463878 4.653993
				}
			}
		}
	}
	JOINT rThigh
	{
		OFFSET -5.338403 -1.642589 1.368821
		CHANNELS 3 Xrotation Zrotation Yrotation 
		JOINT rShin
		{
			OFFSET 2.053232 -20.121670 0.000000
			CHANNELS 3 Xrotation Zrotation Yrotation 
			JOINT rFoot
			{
				OFFSET 0.000000 -19.300380 -1.231939
				CHANNELS 3 Xrotation Yrotation Zrotation 
				End Site
				{
					OFFSET 0.000000 -2.463878 4.653993
				}
			}
		}
	}
}
MOTION
Frames: 8
Frame Time: 0.033264
0.000000 43.528500 0.000000 0.000000 0.000000 0.000000 0.000000 0.000000 0.000000 0.000000 0.000000 0.000000 0.000000 0.000000 0.000000 0.000000 0.000000 0.000000 0.000000 0.000000 0.000000 0.000000 0.000000 0.000000 0.000000 0.000000 0.000000 0.000000 0.000000 0.000000 0.000000 0.000000 0.000000 0.000000 0.000000 0.000000 0.000000 0.000000 0.000000 0.000000 0.000000 0.000000 0.000000 0.000000 0.000000 0.000000 0.000000 0.000000 0.000000 0.000000 0.000000 0.000000 0.000000 0.000000 0.000000 0.000000 0.000000 0.000000 0.000000 0.000000 
0.681839 14.659557 17.701042 0.000000 0.000000 180.000000 -0.344462 0.000000 0.000000 -0.442382 -0.001735 -0.449376 0.187093 -0.120648 -0.000197 -0.180100 0.000000 0.000000 0.182364 -8.149938 -0.023820 -61.754883 -46.062878 0.472073 -33.003304 -4.999767 -0.001685 -34.001362 17.996592 -12.002244 -0.185888 8.146428 -0.023575 61.747410 46.059631 0.466948 46.999737 4.998585 -0.001023 33.998344 -18.000319 -12.002869 -58.663586 21.759686 5.793133 145.991440 15.550970 -0.726839 58.551052 18.016270 2.517781 -58.663635 -21.764565 -5.794540 145.990906 -15.548622 0.722495 58.551182 -18.021099 -2.519134 
0.681839 14.659557 17.701042 0.000000 0.000000 180.000000 -0.344462 0.000000 0.000000 -0.442382 -0.001735 -0.449376 0.187093 -0.120648 -0.000197 -0.361864 -0.083531 -0.053738 0.182364 -8.149938 -0.023820 -61.754883 -46.062878 0.472073 -32.881184 -4.999770 -0.001684 -34.001362 17.996592 -12.002244 -0.185888 8.146428 -0.023575 61.747410 46.059631 0.466948 46.999737 4.998585 -0.001023 33.998344 -18.000319 -12.002869 -58.663586 21.759686 5.793133 145.991440 15.550970 -0.726838 58.551052 18.016272 2.517782 -58.663635 -21.764565 -5.794540 145.990906 -15.548622 0.722495 58.551182 -18.021099 -2.519134 
0.681839 14.659557 17.701042 0.000000 0.000000 180.000000 -0.344462 0.000000 0.000000 -0.442382 -0.001735 -0.449376 0.187093 -0.120648 -0.000197 -0.543608 -0.167260 -0.107229 0.182364 -8.149938 -0.023820 -61.754883 -46.062878 0.472071 -32.759037 -4.999772 -0.001684 -34.001362 17.996592 -12.002245 -0.185888 8.146428 -0.023575 61.747410 46.059639 0.466944 46.999737 4.998585 -0.001023 33.998344 -18.000320 -12.002870 -58.663586 21.759686 5.793133 145.991440 15.550970 -0.726839 58.551052 18.016272 2.517782 -58.663635 -21.764565 -5.794540 145.990906 -15.548624 0.722496 58.551182 -18.021099 -2.519133 
0.681839 14.659557 17.701042 0.000000 0.000000 180.000000 -0.344462 0.000000 0.000000 -0.442382 -0.001735 -0.449376 0.187093 -0.120648 -0.000197 -0.725331 -0.251183 -0.160470 0.182364 -8.149938 -0.023820 -61.754883 -46.062878 0.472073 -32.636841 -4.999773 -0.001682 -34.001362 17.996592 -12.002244 -0.185888 8.146428 -0.023575 61.747410 46.059631 0.466948 46.999741 4.998585 -0.001023 33.998344 -18.000319 -12.002869 -58.663586 21.759686 5.793133 145.991440 15.550970 -0.726838 58.551060 18.016272 2.517782 -58.663635 -21.764565 -5.794542 145.990906 -15.548622 0.722495 58.551189 -18.021101 -2.519135 
0.681839 14.659557 17.701042 0.000000 0.000000 180.000000 -0.344462 0.000000 0.000000 -0.442382 -0.001735 -0.449376 0.187093 -0.120648 -0.000197 -0.907034 -0.335301 -0.213462 0.182364 -8.149938 -0.023820 -61.754883 -46.062878 0.472073 -32.514622 -4.999775 -0.001682 -34.001358 17.996590 -12.002243 -0.185888 8.146428 -0.023575 61.747402 46.059628 0.466944 46.999733 4.998585 -0.001023 33.998344 -18.000319 -12.002869 -58.663582 21.759682 5.793133 145.991440 15.550970 -0.726839 58.551044 18.016270 2.517780 -58.663635 -21.764565 -5.794540 145.990906 -15.548622 0.722496 58.551182 -18.021099 -2.519134 
0.681839 14.659557 17.701042 0.000000 0.000000 180.000000 -0.344462 0.000000 0.000000 -0.442382 -0.001735 -0.449376 0.187093 -0.120648 -0.000197 -1.088714 -0.419612 -0.266203 0.182364 -8.149938 -0.023820 -61.754875 -46.062874 0.472069 -32.392372 -4.999777 -0.001681 -34.001362 17.996592 -12.002244 -0.185888 8.146426 -0.023575 61.747410 46.059631 0.466948 46.999737 4.998585 -0.001023 33.998344 -18.000319 -12.002869 -58.663582 21.759684 5.793133 145.991440 15.550970 -0.726839 58.551052 18.016270 2.517781 -58.663628 -21.764563 -5.794540 145.990906 -15.548622 0.722496 58.551182 -18.021099 -2.519133 
0.681839 14.659557 17.701042 0.000000 0.000000 180.000000 -0.344462 0.000000 0.000000 -0.442382 -0.001735 -0.449376 0.187093 -0.120648 -0.000197 -1.270373 -0.504115 -0.318692 0.182364 -8.149938 -0.023820 -61.754883 -46.062878 0.472073 -32.270088 -4.999780 -0.001680 -34.001362 17.996592 -12.002244 -0.185888 8.146428 -0.023575 61.747410 46.059631 0.466948 46.999737 4.998585 -0.001023 33.998344 -18.000319 -12.002869 -58.663586 21.759686 5.793133 145.991440 15.550970 -0.726839 58.551052 18.016270 2.517781 -58.663635 -21.764565 -5.794540 145.990906 -15.548622 0.722495 58.551182 -18.021099 -2.519134 
